<mxfile host="app.diagrams.net" agent="Mozilla/5.0 (Windows NT 10.0; Win64; x64) AppleWebKit/537.36 (KHTML, like Gecko) Chrome/129.0.0.0 Safari/537.36 Edg/129.0.0.0" version="24.7.7">
  <diagram name="PÃ¡gina-1" id="wVngsz1INrPDvrKH6HJg">
    <mxGraphModel dx="3996" dy="2905" grid="1" gridSize="10" guides="1" tooltips="1" connect="1" arrows="1" fold="1" page="1" pageScale="1" pageWidth="827" pageHeight="1169" math="0" shadow="0">
      <root>
        <mxCell id="0" />
        <mxCell id="1" parent="0" />
        <mxCell id="FFVXpsN5SPwlDvft4KiR-1" value="Usuario" style="shape=umlActor;verticalLabelPosition=bottom;verticalAlign=top;html=1;outlineConnect=0;" vertex="1" parent="1">
          <mxGeometry x="-150" y="500" width="30" height="60" as="geometry" />
        </mxCell>
        <mxCell id="FFVXpsN5SPwlDvft4KiR-2" value="Frontend" style="rounded=0;whiteSpace=wrap;html=1;" vertex="1" parent="1">
          <mxGeometry x="210" y="510" width="120" height="60" as="geometry" />
        </mxCell>
        <mxCell id="FFVXpsN5SPwlDvft4KiR-3" value="GET /api/clients" style="rounded=0;whiteSpace=wrap;html=1;" vertex="1" parent="1">
          <mxGeometry x="590" y="450" width="120" height="60" as="geometry" />
        </mxCell>
        <mxCell id="FFVXpsN5SPwlDvft4KiR-4" value="POST /api/clients" style="rounded=0;whiteSpace=wrap;html=1;" vertex="1" parent="1">
          <mxGeometry x="590" y="570" width="120" height="60" as="geometry" />
        </mxCell>
        <mxCell id="FFVXpsN5SPwlDvft4KiR-5" value="GET /api/history" style="rounded=0;whiteSpace=wrap;html=1;" vertex="1" parent="1">
          <mxGeometry x="590" y="690" width="120" height="60" as="geometry" />
        </mxCell>
        <mxCell id="FFVXpsN5SPwlDvft4KiR-6" value="POST /api/auth/login" style="rounded=0;whiteSpace=wrap;html=1;" vertex="1" parent="1">
          <mxGeometry x="600" y="60" width="120" height="60" as="geometry" />
        </mxCell>
        <mxCell id="FFVXpsN5SPwlDvft4KiR-7" value="GET /api/auth/whoami" style="rounded=0;whiteSpace=wrap;html=1;" vertex="1" parent="1">
          <mxGeometry x="590" y="330" width="120" height="60" as="geometry" />
        </mxCell>
        <mxCell id="FFVXpsN5SPwlDvft4KiR-8" value="SQLite" style="strokeWidth=2;html=1;shape=mxgraph.flowchart.database;whiteSpace=wrap;" vertex="1" parent="1">
          <mxGeometry x="1540" y="-50" width="120" height="130" as="geometry" />
        </mxCell>
        <mxCell id="FFVXpsN5SPwlDvft4KiR-10" value="POST /api/queue" style="rounded=0;whiteSpace=wrap;html=1;" vertex="1" parent="1">
          <mxGeometry x="590" y="810" width="120" height="60" as="geometry" />
        </mxCell>
        <mxCell id="FFVXpsN5SPwlDvft4KiR-11" value="Cola de clientes" style="rounded=0;whiteSpace=wrap;html=1;" vertex="1" parent="1">
          <mxGeometry x="960" y="810" width="120" height="60" as="geometry" />
        </mxCell>
        <mxCell id="FFVXpsN5SPwlDvft4KiR-12" value="GET /api/queue/ws" style="rounded=0;whiteSpace=wrap;html=1;" vertex="1" parent="1">
          <mxGeometry x="590" y="930" width="120" height="60" as="geometry" />
        </mxCell>
        <mxCell id="FFVXpsN5SPwlDvft4KiR-13" value="" style="endArrow=classic;startArrow=classic;html=1;rounded=0;exitX=0.5;exitY=1;exitDx=0;exitDy=0;edgeStyle=orthogonalEdgeStyle;entryX=0;entryY=0.5;entryDx=0;entryDy=0;" edge="1" parent="1" source="FFVXpsN5SPwlDvft4KiR-2" target="FFVXpsN5SPwlDvft4KiR-12">
          <mxGeometry width="50" height="50" relative="1" as="geometry">
            <mxPoint x="250" y="640" as="sourcePoint" />
            <mxPoint x="270" y="900" as="targetPoint" />
          </mxGeometry>
        </mxCell>
        <mxCell id="FFVXpsN5SPwlDvft4KiR-17" value="" style="endArrow=classic;html=1;rounded=0;exitX=1;exitY=0.5;exitDx=0;exitDy=0;edgeStyle=orthogonalEdgeStyle;entryX=0.5;entryY=1;entryDx=0;entryDy=0;entryPerimeter=0;" edge="1" parent="1" source="FFVXpsN5SPwlDvft4KiR-11" target="FFVXpsN5SPwlDvft4KiR-8">
          <mxGeometry width="50" height="50" relative="1" as="geometry">
            <mxPoint x="790" y="610" as="sourcePoint" />
            <mxPoint x="1230" y="440" as="targetPoint" />
          </mxGeometry>
        </mxCell>
        <mxCell id="FFVXpsN5SPwlDvft4KiR-20" value="" style="endArrow=classic;startArrow=classic;html=1;rounded=0;exitX=1;exitY=0.5;exitDx=0;exitDy=0;entryX=0;entryY=0.5;entryDx=0;entryDy=0;edgeStyle=orthogonalEdgeStyle;" edge="1" parent="1" source="FFVXpsN5SPwlDvft4KiR-10" target="FFVXpsN5SPwlDvft4KiR-11">
          <mxGeometry width="50" height="50" relative="1" as="geometry">
            <mxPoint x="930" y="560" as="sourcePoint" />
            <mxPoint x="980" y="510" as="targetPoint" />
          </mxGeometry>
        </mxCell>
        <mxCell id="FFVXpsN5SPwlDvft4KiR-21" value="" style="endArrow=classic;startArrow=classic;html=1;rounded=0;exitX=1;exitY=0.5;exitDx=0;exitDy=0;entryX=0;entryY=0.5;entryDx=0;entryDy=0;edgeStyle=orthogonalEdgeStyle;" edge="1" parent="1" source="FFVXpsN5SPwlDvft4KiR-12" target="FFVXpsN5SPwlDvft4KiR-11">
          <mxGeometry width="50" height="50" relative="1" as="geometry">
            <mxPoint x="930" y="560" as="sourcePoint" />
            <mxPoint x="980" y="510" as="targetPoint" />
          </mxGeometry>
        </mxCell>
        <mxCell id="FFVXpsN5SPwlDvft4KiR-22" value="" style="endArrow=classic;startArrow=classic;html=1;rounded=0;exitX=1;exitY=0.5;exitDx=0;exitDy=0;edgeStyle=orthogonalEdgeStyle;entryX=0.003;entryY=0.697;entryDx=0;entryDy=0;entryPerimeter=0;" edge="1" parent="1" source="FFVXpsN5SPwlDvft4KiR-5" target="FFVXpsN5SPwlDvft4KiR-8">
          <mxGeometry width="50" height="50" relative="1" as="geometry">
            <mxPoint x="930" y="600" as="sourcePoint" />
            <mxPoint x="1570" y="100" as="targetPoint" />
            <Array as="points">
              <mxPoint x="1260" y="720" />
              <mxPoint x="1260" y="41" />
            </Array>
          </mxGeometry>
        </mxCell>
        <mxCell id="FFVXpsN5SPwlDvft4KiR-23" value="" style="endArrow=classic;startArrow=classic;html=1;rounded=0;exitX=1;exitY=0.5;exitDx=0;exitDy=0;edgeStyle=orthogonalEdgeStyle;entryX=1.014;entryY=0.667;entryDx=0;entryDy=0;entryPerimeter=0;" edge="1" parent="1" source="FFVXpsN5SPwlDvft4KiR-4" target="FFVXpsN5SPwlDvft4KiR-8">
          <mxGeometry width="50" height="50" relative="1" as="geometry">
            <mxPoint x="730" y="670" as="sourcePoint" />
            <mxPoint x="940" y="520" as="targetPoint" />
            <Array as="points">
              <mxPoint x="1810" y="600" />
              <mxPoint x="1810" y="37" />
            </Array>
          </mxGeometry>
        </mxCell>
        <mxCell id="FFVXpsN5SPwlDvft4KiR-24" value="" style="endArrow=classic;startArrow=classic;html=1;rounded=0;exitX=1;exitY=0.5;exitDx=0;exitDy=0;entryX=0.5;entryY=0;entryDx=0;entryDy=0;entryPerimeter=0;edgeStyle=orthogonalEdgeStyle;" edge="1" parent="1" source="FFVXpsN5SPwlDvft4KiR-3" target="FFVXpsN5SPwlDvft4KiR-8">
          <mxGeometry width="50" height="50" relative="1" as="geometry">
            <mxPoint x="810" y="500" as="sourcePoint" />
            <mxPoint x="860" y="450" as="targetPoint" />
            <Array as="points">
              <mxPoint x="830" y="480" />
              <mxPoint x="830" y="-190" />
              <mxPoint x="1600" y="-190" />
            </Array>
          </mxGeometry>
        </mxCell>
        <mxCell id="FFVXpsN5SPwlDvft4KiR-26" value="Retorna JWT" style="rounded=1;whiteSpace=wrap;html=1;" vertex="1" parent="1">
          <mxGeometry x="330" y="180" width="120" height="60" as="geometry" />
        </mxCell>
        <mxCell id="FFVXpsN5SPwlDvft4KiR-27" value="" style="endArrow=classic;startArrow=classic;html=1;rounded=0;exitX=1;exitY=0.25;exitDx=0;exitDy=0;entryX=0;entryY=0.5;entryDx=0;entryDy=0;edgeStyle=orthogonalEdgeStyle;" edge="1" parent="1" source="FFVXpsN5SPwlDvft4KiR-2" target="FFVXpsN5SPwlDvft4KiR-7">
          <mxGeometry width="50" height="50" relative="1" as="geometry">
            <mxPoint x="740" y="580" as="sourcePoint" />
            <mxPoint x="790" y="530" as="targetPoint" />
          </mxGeometry>
        </mxCell>
        <mxCell id="FFVXpsN5SPwlDvft4KiR-28" value="" style="endArrow=classic;startArrow=classic;html=1;rounded=0;exitX=1;exitY=0.75;exitDx=0;exitDy=0;entryX=0;entryY=0.5;entryDx=0;entryDy=0;edgeStyle=orthogonalEdgeStyle;" edge="1" parent="1" source="FFVXpsN5SPwlDvft4KiR-2" target="FFVXpsN5SPwlDvft4KiR-4">
          <mxGeometry width="50" height="50" relative="1" as="geometry">
            <mxPoint x="740" y="580" as="sourcePoint" />
            <mxPoint x="790" y="530" as="targetPoint" />
          </mxGeometry>
        </mxCell>
        <mxCell id="FFVXpsN5SPwlDvft4KiR-29" value="" style="endArrow=classic;startArrow=classic;html=1;rounded=0;exitX=0.25;exitY=0;exitDx=0;exitDy=0;entryX=0;entryY=0.5;entryDx=0;entryDy=0;edgeStyle=orthogonalEdgeStyle;" edge="1" parent="1" source="FFVXpsN5SPwlDvft4KiR-2" target="FFVXpsN5SPwlDvft4KiR-3">
          <mxGeometry width="50" height="50" relative="1" as="geometry">
            <mxPoint x="610" y="630" as="sourcePoint" />
            <mxPoint x="660" y="580" as="targetPoint" />
          </mxGeometry>
        </mxCell>
        <mxCell id="FFVXpsN5SPwlDvft4KiR-30" value="" style="endArrow=classic;html=1;rounded=0;exitX=0.5;exitY=0;exitDx=0;exitDy=0;entryX=0;entryY=0.5;entryDx=0;entryDy=0;edgeStyle=orthogonalEdgeStyle;" edge="1" parent="1" source="FFVXpsN5SPwlDvft4KiR-2" target="FFVXpsN5SPwlDvft4KiR-6">
          <mxGeometry width="50" height="50" relative="1" as="geometry">
            <mxPoint x="830" y="490" as="sourcePoint" />
            <mxPoint x="880" y="440" as="targetPoint" />
          </mxGeometry>
        </mxCell>
        <mxCell id="FFVXpsN5SPwlDvft4KiR-31" value="" style="endArrow=classic;html=1;rounded=0;exitX=0.5;exitY=1;exitDx=0;exitDy=0;entryX=1;entryY=0.5;entryDx=0;entryDy=0;edgeStyle=orthogonalEdgeStyle;" edge="1" parent="1" source="FFVXpsN5SPwlDvft4KiR-6" target="FFVXpsN5SPwlDvft4KiR-26">
          <mxGeometry width="50" height="50" relative="1" as="geometry">
            <mxPoint x="830" y="490" as="sourcePoint" />
            <mxPoint x="880" y="440" as="targetPoint" />
          </mxGeometry>
        </mxCell>
        <mxCell id="FFVXpsN5SPwlDvft4KiR-32" value="" style="endArrow=classic;html=1;rounded=0;exitX=0.5;exitY=1;exitDx=0;exitDy=0;edgeStyle=orthogonalEdgeStyle;entryX=0.75;entryY=0;entryDx=0;entryDy=0;" edge="1" parent="1" source="FFVXpsN5SPwlDvft4KiR-26" target="FFVXpsN5SPwlDvft4KiR-2">
          <mxGeometry width="50" height="50" relative="1" as="geometry">
            <mxPoint x="830" y="490" as="sourcePoint" />
            <mxPoint x="880" y="440" as="targetPoint" />
          </mxGeometry>
        </mxCell>
        <mxCell id="FFVXpsN5SPwlDvft4KiR-34" value="" style="swimlane;startSize=0;" vertex="1" parent="1">
          <mxGeometry x="550" y="310" width="200" height="720" as="geometry" />
        </mxCell>
        <mxCell id="FFVXpsN5SPwlDvft4KiR-35" value="Interceptado por middleware de autenticaciÃ³n por JWT" style="text;html=1;align=center;verticalAlign=middle;whiteSpace=wrap;rounded=0;" vertex="1" parent="1">
          <mxGeometry x="560" y="270" width="180" height="30" as="geometry" />
        </mxCell>
        <mxCell id="FFVXpsN5SPwlDvft4KiR-36" value="" style="swimlane;startSize=0;" vertex="1" parent="1">
          <mxGeometry x="160" y="10" width="950" height="1050" as="geometry" />
        </mxCell>
        <mxCell id="FFVXpsN5SPwlDvft4KiR-14" value="Websockets" style="text;html=1;align=center;verticalAlign=middle;resizable=0;points=[];autosize=1;strokeColor=none;fillColor=none;" vertex="1" parent="FFVXpsN5SPwlDvft4KiR-36">
          <mxGeometry x="230" y="920" width="90" height="30" as="geometry" />
        </mxCell>
        <mxCell id="FFVXpsN5SPwlDvft4KiR-37" value="Servidor en Go" style="text;html=1;align=center;verticalAlign=middle;whiteSpace=wrap;rounded=0;" vertex="1" parent="1">
          <mxGeometry x="160" y="-30" width="130" height="30" as="geometry" />
        </mxCell>
        <mxCell id="FFVXpsN5SPwlDvft4KiR-39" value="" style="endArrow=classic;html=1;rounded=0;" edge="1" parent="1" target="FFVXpsN5SPwlDvft4KiR-2">
          <mxGeometry width="50" height="50" relative="1" as="geometry">
            <mxPoint x="-110" y="540" as="sourcePoint" />
            <mxPoint x="1120" y="390" as="targetPoint" />
          </mxGeometry>
        </mxCell>
      </root>
    </mxGraphModel>
  </diagram>
</mxfile>
